<svg width="163" height="180" viewBox="0 0 163 180" fill="none" xmlns="http://www.w3.org/2000/svg">
<rect x="0.5" y="0.5" width="162" height="179" fill="white" stroke="#DDDDDD"/>
<g clip-path="url(#clip0_666_5505)">
<path d="M82.0021 60.707C65.8466 60.707 52.7031 73.8457 52.7031 89.9962C52.7031 106.151 65.8468 119.294 82.0021 119.294C98.1517 119.294 111.29 106.151 111.29 89.9962C111.29 73.8457 98.1516 60.707 82.0021 60.707ZM82.0021 117.463C66.856 117.463 54.5339 105.142 54.5339 89.9962C54.5339 74.8559 66.856 62.5379 82.0021 62.5379C97.1424 62.5379 109.459 74.8559 109.459 89.9962C109.459 105.142 97.1424 117.463 82.0021 117.463Z" fill="#353535"/>
<path d="M83.8762 72.1341C78.402 71.1257 73.127 74.1974 71.3445 79.4351C70.5905 81.6546 72.3008 83.8996 74.59 83.8996C76.0288 83.8996 77.3247 82.968 77.8141 81.5815C78.5324 79.5468 80.6815 78.3819 82.8127 78.8754C85.2639 79.4402 86.6342 82.1223 85.748 84.4645C85.3292 85.573 84.4656 86.4608 83.3786 86.8997C80.3507 88.1235 78.3938 90.9136 78.3938 94.0068V95.7482C78.3938 97.6264 79.9225 99.155 81.8016 99.155C83.6803 99.155 85.209 97.6263 85.209 95.7482V94.0068C85.209 93.6966 85.407 93.4203 85.7132 93.3041C88.5194 92.2403 90.8021 90.0277 91.9755 87.234C94.6826 80.7898 90.7297 73.3918 83.8762 72.1341ZM90.2876 86.5252C89.3074 88.8585 87.4037 90.7053 85.0641 91.5922C84.0401 91.9811 83.3781 92.9287 83.3781 94.0069V95.7483C83.3781 96.6172 82.671 97.3243 81.8016 97.3243C80.9322 97.3243 80.2246 96.6172 80.2246 95.7483V94.0069C80.2246 91.6638 81.7319 89.5397 84.0646 88.5966C85.6237 87.9673 86.8614 86.6968 87.4608 85.1119C88.7472 81.7082 86.7308 77.9018 83.2243 77.0912C80.1735 76.3898 77.1131 78.066 76.0877 80.972C75.8526 81.638 75.2638 82.0689 74.5885 82.0689C73.5114 82.0689 72.7397 81.0182 73.0777 80.0252C74.5648 75.6546 78.9694 73.0916 83.5453 73.9346C89.2242 74.9785 92.5495 81.1375 90.2876 86.5252Z" fill="#353535"/>
<path d="M81.9933 101.244C80.1146 101.244 78.5859 102.773 78.5859 104.652C78.5859 106.53 80.1146 108.059 81.9933 108.059C83.8724 108.059 85.4011 106.53 85.4011 104.652C85.4011 102.773 83.8724 101.244 81.9933 101.244ZM81.9933 106.228C81.1239 106.228 80.4168 105.521 80.4168 104.652C80.4168 103.782 81.1239 103.075 81.9933 103.075C82.8627 103.075 83.5703 103.782 83.5703 104.652C83.5703 105.521 82.8627 106.228 81.9933 106.228Z" fill="#353535"/>
</g>
<defs>
<clipPath id="clip0_666_5505">
<rect width="60" height="60" fill="white" transform="translate(52 60)"/>
</clipPath>
</defs>
</svg>
