<svg width="11" height="19" viewBox="0 0 11 19" fill="none" xmlns="http://www.w3.org/2000/svg">
<path d="M6.78354 18.9629H3.73491C3.22569 18.9629 2.81146 18.5495 2.81146 18.0412V11.1783H1.03282C0.523606 11.1783 0.109375 10.7648 0.109375 10.2567V7.31591C0.109375 6.80769 0.523606 6.39426 1.03282 6.39426H2.81146V4.92163C2.81146 3.46146 3.27086 2.21917 4.13985 1.32927C5.01275 0.43531 6.23264 -0.0371094 7.66763 -0.0371094L9.99267 -0.0333405C10.501 -0.0324707 10.9145 0.380951 10.9145 0.888306V3.61874C10.9145 4.12697 10.5004 4.54039 9.99136 4.54039L8.42594 4.54097C7.94853 4.54097 7.82696 4.6365 7.80096 4.66578C7.75812 4.71434 7.70714 4.85162 7.70714 5.23068V6.39412H9.87372C10.0368 6.39412 10.1948 6.43427 10.3306 6.50994C10.6236 6.67331 10.8057 6.98222 10.8057 7.31606L10.8046 10.2568C10.8046 10.7648 10.3903 11.1782 9.88112 11.1782H7.70714V18.0412C7.70714 18.5495 7.29276 18.9629 6.78354 18.9629ZM3.9275 17.849H6.59095V10.6797C6.59095 10.3403 6.86764 10.0643 7.20751 10.0643H9.68853L9.68955 7.50813H7.20736C6.86749 7.50813 6.59095 7.23213 6.59095 6.89278V5.23068C6.59095 4.79552 6.63525 4.30063 6.96437 3.92867C7.36204 3.479 7.98876 3.42711 8.42565 3.42711L9.79848 3.42653V1.08023L7.66676 1.07675C5.36061 1.07675 3.9275 2.55011 3.9275 4.92163V6.89278C3.9275 7.23198 3.65096 7.50813 3.31109 7.50813H1.22542V10.0643H3.31109C3.65096 10.0643 3.9275 10.3403 3.9275 10.6797V17.849Z" fill="#353535"/>
</svg>
