<svg width="16" height="16" viewBox="0 0 16 16" fill="none" xmlns="http://www.w3.org/2000/svg">
<g clip-path="url(#clip0_501_2690)">
<path d="M8.00182 3.89209C5.73315 3.89209 3.89648 5.73076 3.89648 7.99742C3.89648 10.2661 5.73515 12.1028 8.00182 12.1028C10.2705 12.1028 12.1072 10.2641 12.1072 7.99742C12.1072 5.72876 10.2685 3.89209 8.00182 3.89209ZM8.00182 10.6621C6.52915 10.6621 5.33715 9.46942 5.33715 7.99742C5.33715 6.52542 6.52982 5.33276 8.00182 5.33276C9.47382 5.33276 10.6665 6.52542 10.6665 7.99742C10.6672 9.46942 9.47448 10.6621 8.00182 10.6621Z" fill="#353535"/>
<path d="M11.2988 0.0507461C9.82682 -0.0179206 6.18082 -0.0145873 4.70749 0.0507461C3.41282 0.111413 2.27082 0.424079 1.35015 1.34475C-0.188515 2.88341 0.00815151 4.95675 0.00815151 7.99741C0.00815151 11.1094 -0.165182 13.1347 1.35015 14.6501C2.89482 16.1941 4.99815 15.9921 8.00282 15.9921C11.0855 15.9921 12.1495 15.9941 13.2395 15.5721C14.7215 14.9967 15.8402 13.6721 15.9495 11.2927C16.0188 9.82008 16.0148 6.17475 15.9495 4.70141C15.8175 1.89275 14.3102 0.189413 11.2988 0.0507461ZM13.6288 13.6321C12.6202 14.6407 11.2208 14.5507 7.98349 14.5507C4.65015 14.5507 3.31348 14.6001 2.33815 13.6221C1.21482 12.5041 1.41815 10.7087 1.41815 7.98675C1.41815 4.30341 1.04015 1.65075 4.73682 1.46141C5.58615 1.43141 5.83615 1.42141 7.97415 1.42141L8.00415 1.44141C11.5568 1.44141 14.3442 1.06941 14.5115 4.76541C14.5495 5.60875 14.5582 5.86208 14.5582 7.99675C14.5575 11.2914 14.6202 12.6361 13.6288 13.6321Z" fill="#353535"/>
<path d="M12.2699 4.68917C12.7997 4.68917 13.2292 4.25967 13.2292 3.72984C13.2292 3.20002 12.7997 2.77051 12.2699 2.77051C11.7401 2.77051 11.3105 3.20002 11.3105 3.72984C11.3105 4.25967 11.7401 4.68917 12.2699 4.68917Z" fill="#353535"/>
</g>
<defs>
<clipPath id="clip0_501_2690">
<rect width="16" height="16" fill="white"/>
</clipPath>
</defs>
</svg>
