<svg width="162" height="40" viewBox="0 0 162 40" fill="none" xmlns="http://www.w3.org/2000/svg">
<g clip-path="url(#clip0_673_7524)">
<path d="M159.498 32.7485H153.166V39.9319H154.536V37.8072C154.536 37.3619 154.911 37.0003 155.371 37.0003H160.334V39.9319H161.702V34.8744C161.702 33.7011 160.714 32.7485 159.498 32.7485ZM160.334 35.6801H155.371C155.074 35.6801 154.792 35.7384 154.536 35.8403V34.0675H159.498C159.96 34.0675 160.334 34.4291 160.334 34.8744V35.6801Z" fill="#E55733"/>
<path d="M149.848 37.8072C149.848 38.2501 149.474 38.6129 149.014 38.6129H144.886C144.425 38.6129 144.049 38.2501 144.049 37.8072V32.7485H142.682V37.8072C142.682 38.9794 143.671 39.9319 144.886 39.9319H149.014C150.227 39.9319 151.218 38.9794 151.218 37.8072V32.7485H149.848V37.8072Z" fill="#E55733"/>
<path d="M140.993 38.6592H139.625V40H140.993V38.6592Z" fill="#E55733"/>
<path d="M132.586 33.7836C132.042 33.1514 131.221 32.7485 130.306 32.7485H127.316V39.9319H128.685V34.0675H130.306C131.189 34.0675 131.902 34.7567 131.902 35.6049V39.2718H133.271V35.6049C133.271 34.7567 133.987 34.0675 134.867 34.0675H136.491V39.9319H137.858V32.7485H134.867C133.952 32.7485 133.131 33.1514 132.586 33.7836Z" fill="#E55733"/>
<path d="M123.237 32.7485H119.109C117.893 32.7485 116.902 33.7011 116.902 34.8732V37.8072C116.902 38.9794 117.892 39.9319 119.109 39.9319H123.237C124.451 39.9319 125.441 38.9794 125.441 37.8072V34.8732C125.441 33.7011 124.451 32.7485 123.237 32.7485ZM124.073 37.8072C124.073 38.2501 123.697 38.6129 123.237 38.6129H119.109C118.647 38.6129 118.273 38.2501 118.273 37.8072V34.8732C118.273 34.4291 118.647 34.0675 119.109 34.0675H123.237C123.697 34.0675 124.073 34.4291 124.073 34.8732V37.8072Z" fill="#E55733"/>
<path d="M106.639 34.8732V37.8072C106.639 38.9794 107.628 39.9319 108.845 39.9319H115.173V37.9541H113.808V38.6129H108.845C108.383 38.6129 108.008 38.2501 108.008 37.8072V34.8732C108.008 34.4291 108.383 34.0675 108.845 34.0675H113.808V35.5321H115.173V32.7485H108.845C107.629 32.7485 106.639 33.7011 106.639 34.8732Z" fill="#E55733"/>
<path d="M105.028 38.6592H103.658V40H105.028V38.6592Z" fill="#E55733"/>
<path d="M152.399 23.9577L146.109 12.3296H142.801L151.148 27.5858H153.652L162 12.3296H158.692L152.399 23.9577Z" fill="#353535"/>
<path d="M137.275 12.3296H128.511C125.929 12.3296 123.828 14.3548 123.828 16.8435V23.0719C123.828 25.5606 125.929 27.5858 128.511 27.5858H137.275C139.855 27.5858 141.958 25.5606 141.958 23.0719V16.8435C141.958 14.3548 139.855 12.3296 137.275 12.3296ZM139.052 23.0719C139.052 24.0171 138.254 24.7852 137.275 24.7852H128.511C127.53 24.7852 126.732 24.0171 126.732 23.0719V16.8435C126.732 15.897 127.53 15.1289 128.511 15.1289H137.275C138.254 15.1289 139.052 15.897 139.052 16.8435V23.0719Z" fill="#353535"/>
<path d="M82.6309 16.5292H85.5362V15.1289H90.2429V27.5858H93.147V15.1289H97.8538V16.5292H100.759V12.3296H82.6309V16.5292Z" fill="#353535"/>
<path d="M46.418 14.5246C45.2624 13.1838 43.5215 12.3296 41.5741 12.3296H35.2246V27.5858H38.1287V15.1289H41.5741C43.4447 15.1289 44.9641 16.5959 44.9641 18.3966V26.1867H47.8695V18.3966C47.8695 16.5959 49.3901 15.1289 51.262 15.1289H54.7061V27.5858H57.6102V12.3296H51.262C49.3146 12.3296 47.5736 13.1838 46.4168 14.5246H46.418Z" fill="#353535"/>
<path d="M31.3275 12.6836C31.3275 9.4814 28.6236 6.875 25.3003 6.875H7.11914V23.4878L10.2108 26.4691V9.85634H25.299C26.9153 9.85634 28.2321 11.1244 28.2321 12.6848V21.3255C28.2321 22.8847 26.9166 24.1527 25.299 24.1527H18.2106V18.1585L15.1189 15.1759V27.1365H25.299C28.6223 27.1365 31.3262 24.5301 31.3262 21.3267V12.6836H31.3275Z" fill="#353535"/>
<path d="M15.4986 0H0V16.6455L3.09418 19.6281L3.09166 2.98134L18.5928 2.98256L15.4986 0Z" fill="#E55733"/>
<path d="M117.105 21.3573C119.688 21.3573 121.788 19.3334 121.788 16.8435C121.788 14.3536 119.688 12.3296 117.105 12.3296H103.659V12.3429L106.565 15.1435V15.1289H117.104C118.084 15.1289 118.881 15.897 118.881 16.8435C118.881 17.7899 118.084 18.5568 117.104 18.5568H108.341C105.759 18.5568 103.658 20.582 103.658 23.0707V27.5858H106.564V23.0719C106.564 22.1266 107.36 21.3573 108.341 21.3573H108.831L117.073 27.5858H121.786L113.542 21.3573H117.104H117.105Z" fill="#353535"/>
<path d="M77.2908 12.3296L70.2879 19.0822L63.2839 12.3296H59.1738L68.8403 21.6486V27.5858H71.7469V21.6364L81.4008 12.3296H77.2908Z" fill="#353535"/>
</g>
<defs>
<clipPath id="clip0_673_7524">
<rect width="162" height="40" fill="white"/>
</clipPath>
</defs>
</svg>
