<svg width="150" height="86" viewBox="0 0 150 86" fill="none" xmlns="http://www.w3.org/2000/svg">
<path d="M90.7291 12.606H61.5156V17.9284V22.1304V40.619L67.6954 46.7818V37.8177V33.0555V21.8503V18.7688H90.4482C92.6954 18.7688 94.3808 20.4496 94.3808 22.6906V36.6972C94.3808 38.9382 92.6954 40.619 90.4482 40.619H80.055V35.2965V31.6548V31.3747L73.8752 25.2118H73.5943V46.7818H79.774H90.1673C95.7853 46.7818 100.28 42.2998 100.28 36.6972V22.6906C101.122 17.088 96.3471 12.606 90.7291 12.606Z" fill="#353535"/>
<path d="M74.4391 0H58.4279H54.2144H49.1582V5.32248V9.52443V23.8111V28.013L55.338 34.1759V31.3746V25.2117V23.8111V20.7296V9.52443V6.44299H58.4279H69.6638H74.4391H80.6189V6.16287L74.4391 0Z" fill="#E55733"/>
<path d="M109.832 76.4756H101.686V86H103.371V83.1987C103.371 82.6385 103.933 82.0782 104.495 82.0782H110.955V86H112.641V79.2769C112.641 77.8762 111.236 76.4756 109.832 76.4756ZM110.955 80.3974H104.495C104.214 80.3974 103.652 80.3974 103.371 80.6775V78.4365H109.832C110.393 78.4365 110.955 78.9968 110.955 79.557V80.3974Z" fill="#E55733"/>
<path d="M97.1915 83.1987C97.1915 83.759 96.6297 84.3192 96.0679 84.3192H90.7309C90.1691 84.3192 89.6073 83.759 89.6073 83.1987V76.4756H87.9219V83.1987C87.9219 84.8795 89.3264 86 90.7309 86H96.0679C97.7533 86 98.8769 84.5994 98.8769 83.1987V76.4756H97.1915V83.1987Z" fill="#E55733"/>
<path d="M85.6737 84.3193H83.9883V86.0001H85.6737V84.3193Z" fill="#E55733"/>
<path d="M75.001 77.8762C74.1583 77.0358 73.3156 76.4756 71.9111 76.4756H67.9785V86H69.6639V78.1564H71.6302C72.7538 78.1564 73.5965 78.9968 73.5965 80.1173V85.1596H75.2819V80.1173C75.2819 78.9968 76.1246 78.1564 77.2482 78.1564H79.2145V86H80.8999V76.4756H76.9673C76.6864 76.4756 75.5628 77.0358 75.001 77.8762Z" fill="#E55733"/>
<path d="M62.9215 76.4756H57.5844C55.899 76.4756 54.7754 77.8762 54.7754 79.2769V83.1987C54.7754 84.8795 56.1799 86 57.5844 86H62.9215C64.6069 86 65.7304 84.5994 65.7304 83.1987V79.2769C65.7304 77.8762 64.326 76.4756 62.9215 76.4756ZM63.7642 83.1987C63.7642 83.759 63.2024 84.3192 62.6406 84.3192H57.3035C56.7417 84.3192 56.1799 83.759 56.1799 83.1987V79.2769C56.1799 78.7166 56.7417 78.1564 57.3035 78.1564H62.6406C63.2024 78.1564 63.7642 78.7166 63.7642 79.2769V83.1987Z" fill="#E55733"/>
<path d="M41.293 79.2769V83.1987C41.293 84.8795 42.6975 86 44.102 86H52.248V83.4788H50.5626V84.3192H44.102C43.5402 84.3192 42.9784 83.759 42.9784 83.1987V79.2769C42.9784 78.7166 43.5402 78.1564 44.102 78.1564H50.5626V80.1173H52.248V76.4756H44.102C42.6975 76.4756 41.293 77.8762 41.293 79.2769Z" fill="#E55733"/>
<path d="M39.0448 84.3193H37.3594V86.0001H39.0448V84.3193Z" fill="#E55733"/>
<path d="M140.168 68.072L133.988 56.0264H130.617L139.044 71.9938H141.572L149.999 56.0264H146.628L140.168 68.072Z" fill="#353535"/>
<path d="M125 56.0264H116.012C113.484 56.0264 111.236 58.2674 111.236 60.7886V67.2316C111.236 69.7527 113.484 71.9938 116.012 71.9938H125C127.528 71.9938 129.776 69.7527 129.776 67.2316V60.7886C129.776 57.9873 127.528 56.0264 125 56.0264ZM126.686 67.2316C126.686 68.3521 125.843 68.9124 125 68.9124H116.012C114.888 68.9124 114.326 68.072 114.326 67.2316V60.7886C114.326 59.6681 115.169 59.1078 116.012 59.1078H125C126.124 59.1078 126.686 59.9482 126.686 60.7886V67.2316Z" fill="#353535"/>
<path d="M69.3828 60.508H72.1918V58.8272H76.9671V71.9933H80.057V58.8272H84.8323V60.508H87.6412V56.0259H69.3828V60.508Z" fill="#353535"/>
<path d="M32.5852 58.2674C31.4616 56.8668 29.7762 56.0264 27.529 56.0264H21.0684V71.9938H24.1582V58.8277H27.529C29.4953 58.8277 30.8998 60.5085 30.8998 62.1892V70.313H33.9897V62.1892C33.9897 60.2283 35.6751 58.8277 37.3605 58.8277H40.7313V71.9938H43.8212V56.0264H37.3605C35.3942 56.0264 33.7088 56.8668 32.5852 58.2674Z" fill="#353535"/>
<path d="M13.764 56.0259H0V58.5471V60.2278V68.9119L3.08989 71.9933V67.7913V65.5503V60.2278V58.8272H13.764C14.8876 58.8272 15.4494 59.6676 15.4494 60.508V66.951C15.4494 68.0715 14.6067 68.6317 13.764 68.6317H8.98876V66.1106V64.4298L6.17978 61.6285V71.7132H8.98876H13.764C16.2921 71.7132 18.5393 69.4721 18.5393 66.951V60.508C18.5393 57.9868 16.2921 56.0259 13.764 56.0259Z" fill="#353535"/>
<path d="M104.495 65.5508C107.023 65.5508 109.27 63.3098 109.27 60.7886C109.27 58.2674 107.023 56.0264 104.495 56.0264H90.7305L93.8204 59.1078H104.495C105.618 59.1078 106.18 59.9482 106.18 60.7886C106.18 61.9091 105.337 62.4694 104.495 62.4694H95.5058C92.9777 62.4694 90.7305 64.7104 90.7305 67.2316V71.9938H93.8204V67.2316C93.8204 66.1111 94.6631 65.5508 95.5058 65.5508H96.0676L104.495 71.9938H108.989L100.562 65.5508H104.495Z" fill="#353535"/>
<path d="M63.7643 56.0264L56.7418 63.0296L49.7193 56.0264H45.5059L55.3373 65.8309V71.9938H58.1463V65.8309L67.9778 56.0264H63.7643Z" fill="#353535"/>
</svg>
