<svg width="20" height="20" viewBox="0 0 20 20" fill="none" xmlns="http://www.w3.org/2000/svg">
<path d="M13.0846 9.76393C13.9045 9.12279 14.5039 8.24177 14.7992 7.24373C15.0945 6.24568 15.0709 5.18037 14.7319 4.19634C14.3928 3.21231 13.7551 2.35862 12.9077 1.75431C12.0603 1.15 11.0454 0.825195 10.0046 0.825195C8.96383 0.825195 7.94896 1.15 7.10156 1.75431C6.25415 2.35862 5.61646 3.21231 5.27739 4.19634C4.93833 5.18037 4.9148 6.24568 5.21008 7.24373C5.50536 8.24177 6.10474 9.12279 6.92464 9.76393C5.37561 10.3803 4.04686 11.4467 3.10986 12.8256C2.17286 14.2045 1.67062 15.8326 1.66797 17.4998V18.3331C1.66797 18.5541 1.75577 18.7661 1.91205 18.9223C2.06833 19.0786 2.28029 19.1664 2.5013 19.1664H17.5013C17.7223 19.1664 17.9343 19.0786 18.0906 18.9223C18.2468 18.7661 18.3346 18.5541 18.3346 18.3331V17.4998C18.3325 15.8334 17.8313 14.2059 16.8955 12.827C15.9598 11.4482 14.6324 10.3813 13.0846 9.76393ZM6.66797 5.83309C6.66797 5.17382 6.86347 4.52936 7.22974 3.98119C7.59601 3.43303 8.1166 3.00579 8.72569 2.75349C9.33478 2.5012 10.005 2.43519 10.6516 2.56381C11.2982 2.69243 11.8921 3.00989 12.3583 3.47607C12.8245 3.94225 13.142 4.53619 13.2706 5.18279C13.3992 5.82939 13.3332 6.49962 13.0809 7.1087C12.8286 7.71779 12.4014 8.23839 11.8532 8.60466C11.305 8.97093 10.6606 9.16643 10.0013 9.16643C9.11725 9.16643 8.2694 8.81524 7.64428 8.19011C7.01916 7.56499 6.66797 6.71715 6.66797 5.83309ZM3.33464 17.4998C3.33464 15.7316 4.03701 14.036 5.28726 12.7857C6.5375 11.5355 8.23319 10.8331 10.0013 10.8331C11.7694 10.8331 13.4651 11.5355 14.7153 12.7857C15.9656 14.036 16.668 15.7316 16.668 17.4998H3.33464Z" fill="#353535"/>
</svg>
