<svg width="19" height="21" viewBox="0 0 19 21" fill="none" xmlns="http://www.w3.org/2000/svg">
<path d="M11.5512 8.77913H10.732C10.732 7.87301 10.4096 7.55057 9.50349 7.55057V6.73158C10.8601 6.73158 11.5512 7.42265 11.5512 8.77913Z" fill="#353535"/>
<path d="M13.1892 8.77913H12.3702C12.3702 6.95684 11.3259 5.91244 9.50349 5.91244V5.09345C11.7764 5.09345 13.1892 6.50633 13.1892 8.77913Z" fill="#353535"/>
<path d="M14.8273 8.77913H14.0083C14.0083 6.08656 12.1961 4.27446 9.50349 4.27446V3.45532C12.6875 3.45532 14.8273 5.59511 14.8273 8.77913Z" fill="#353535"/>
<path d="M5.40838 19.9999V17.1743L4.533 17.0719C2.43926 16.8159 0.801281 15.0961 0.637363 12.9819C0.545281 11.7328 0.494141 10.4531 0.494141 9.1887C0.494141 7.9243 0.545281 6.6497 0.637363 5.39549C0.801281 3.28136 2.47001 1.55624 4.60469 1.29514C7.85531 0.901619 11.1415 0.901619 14.3922 1.29514C16.5319 1.55624 18.2007 3.28136 18.3645 5.39549C18.4618 6.64445 18.5079 7.9243 18.5079 9.1887C18.5079 10.4531 18.4567 11.7328 18.3645 12.9819C18.2058 15.0908 16.5677 16.8108 14.4792 17.0719C13.0167 17.2528 11.5453 17.3536 10.0717 17.374L5.40838 19.9999ZM9.50349 1.81734C7.9003 1.81764 6.29846 1.91512 4.70697 2.10903C2.95636 2.32409 1.58953 3.73187 1.4565 5.46208C1.35917 6.69064 1.31313 7.9447 1.31313 9.1887C1.31313 10.4326 1.35917 11.6919 1.4565 12.9204C1.59028 14.647 2.91767 16.0427 4.63543 16.2631C5.04141 16.3143 5.44933 16.3587 5.85875 16.3962L6.23247 16.432V18.6025L9.85682 16.5601H9.9591C11.4378 16.5436 12.9144 16.4444 14.3819 16.2631C16.0866 16.0533 17.4174 14.6455 17.5506 12.9255C17.6478 11.697 17.694 10.4377 17.694 9.1938C17.694 7.9498 17.6478 6.69574 17.5506 5.46208C17.4174 3.73187 16.0508 2.32409 14.2949 2.10903C12.7051 1.91557 11.105 1.81809 9.50349 1.81734Z" fill="#353535"/>
<path d="M11.1109 14.5124H10.732C6.89279 14.5124 3.77025 11.3898 3.77025 7.55057V7.17175C3.7683 6.51847 4.0282 5.8916 4.49206 5.43134L4.82995 5.09345C5.35709 4.56616 6.27851 4.56616 6.80581 5.09345L7.8655 6.15315C8.12855 6.41439 8.27597 6.77028 8.27492 7.141C8.27372 7.51143 8.1266 7.86641 7.8655 8.12901L7.76817 8.22634C7.56766 8.42745 7.45533 8.69995 7.45593 8.98384C7.45698 9.26759 7.56916 9.53948 7.76817 9.7415L8.53602 10.5093C8.9354 10.9087 9.65705 10.9087 10.0564 10.5093L10.1536 10.4122C10.6809 9.88487 11.6023 9.88487 12.1296 10.4122L13.1892 11.4768C13.7348 12.0226 13.7348 12.9071 13.1892 13.4528L12.8514 13.7907C12.3912 14.2544 11.7643 14.5143 11.1109 14.5124ZM5.8178 5.50302C5.66438 5.50272 5.51696 5.56346 5.40838 5.67189L5.0705 6.00977C4.76096 6.31706 4.58759 6.73563 4.58924 7.17175V7.55057C4.59209 10.942 7.34076 13.6905 10.732 13.6934H11.1109C11.5453 13.6938 11.9618 13.5205 12.2677 13.2123L12.6056 12.8744C12.7145 12.7658 12.7755 12.6185 12.7755 12.4648C12.7755 12.3111 12.7145 12.1638 12.6056 12.0552L11.5512 10.9957C11.3217 10.7772 10.9615 10.7772 10.732 10.9957L10.6349 11.0929C9.89536 11.8318 8.69709 11.8318 7.95759 11.0929L7.18974 10.325C6.83565 9.9684 6.63694 9.4864 6.63694 8.98384C6.63619 8.48279 6.83505 8.00199 7.18974 7.6479L7.28707 7.55057C7.3949 7.44154 7.45563 7.29442 7.45593 7.141C7.45623 6.98758 7.3955 6.84016 7.28707 6.73158L6.22737 5.67189C6.11864 5.56346 5.97137 5.50272 5.8178 5.50302Z" fill="#353535"/>
<path d="M11.5512 8.77913H10.732C10.732 7.87301 10.4096 7.55057 9.50349 7.55057V6.73158C10.8601 6.73158 11.5512 7.42265 11.5512 8.77913Z" stroke="#353535" stroke-width="0.2"/>
<path d="M13.1892 8.77913H12.3702C12.3702 6.95684 11.3259 5.91244 9.50349 5.91244V5.09345C11.7764 5.09345 13.1892 6.50633 13.1892 8.77913Z" stroke="#353535" stroke-width="0.2"/>
<path d="M14.8273 8.77913H14.0083C14.0083 6.08656 12.1961 4.27446 9.50349 4.27446V3.45532C12.6875 3.45532 14.8273 5.59511 14.8273 8.77913Z" stroke="#353535" stroke-width="0.2"/>
<path d="M5.40838 19.9999V17.1743L4.533 17.0719C2.43926 16.8159 0.801281 15.0961 0.637363 12.9819C0.545281 11.7328 0.494141 10.4531 0.494141 9.1887C0.494141 7.9243 0.545281 6.6497 0.637363 5.39549C0.801281 3.28136 2.47001 1.55624 4.60469 1.29514C7.85531 0.901619 11.1415 0.901619 14.3922 1.29514C16.5319 1.55624 18.2007 3.28136 18.3645 5.39549C18.4618 6.64445 18.5079 7.9243 18.5079 9.1887C18.5079 10.4531 18.4567 11.7328 18.3645 12.9819C18.2058 15.0908 16.5677 16.8108 14.4792 17.0719C13.0167 17.2528 11.5453 17.3536 10.0717 17.374L5.40838 19.9999ZM9.50349 1.81734C7.9003 1.81764 6.29846 1.91512 4.70697 2.10903C2.95636 2.32409 1.58953 3.73187 1.4565 5.46208C1.35917 6.69064 1.31313 7.9447 1.31313 9.1887C1.31313 10.4326 1.35917 11.6919 1.4565 12.9204C1.59028 14.647 2.91767 16.0427 4.63543 16.2631C5.04141 16.3143 5.44933 16.3587 5.85875 16.3962L6.23247 16.432V18.6025L9.85682 16.5601H9.9591C11.4378 16.5436 12.9144 16.4444 14.3819 16.2631C16.0866 16.0533 17.4174 14.6455 17.5506 12.9255C17.6478 11.697 17.694 10.4377 17.694 9.1938C17.694 7.9498 17.6478 6.69574 17.5506 5.46208C17.4174 3.73187 16.0508 2.32409 14.2949 2.10903C12.7051 1.91557 11.105 1.81809 9.50349 1.81734Z" stroke="#353535" stroke-width="0.2"/>
<path d="M11.1109 14.5124H10.732C6.89279 14.5124 3.77025 11.3898 3.77025 7.55057V7.17175C3.7683 6.51847 4.0282 5.8916 4.49206 5.43134L4.82995 5.09345C5.35709 4.56616 6.27851 4.56616 6.80581 5.09345L7.8655 6.15315C8.12855 6.41439 8.27597 6.77028 8.27492 7.141C8.27372 7.51143 8.1266 7.86641 7.8655 8.12901L7.76817 8.22634C7.56766 8.42745 7.45533 8.69995 7.45593 8.98384C7.45698 9.26759 7.56916 9.53948 7.76817 9.7415L8.53602 10.5093C8.9354 10.9087 9.65705 10.9087 10.0564 10.5093L10.1536 10.4122C10.6809 9.88487 11.6023 9.88487 12.1296 10.4122L13.1892 11.4768C13.7348 12.0226 13.7348 12.9071 13.1892 13.4528L12.8514 13.7907C12.3912 14.2544 11.7643 14.5143 11.1109 14.5124ZM5.8178 5.50302C5.66438 5.50272 5.51696 5.56346 5.40838 5.67189L5.0705 6.00977C4.76096 6.31706 4.58759 6.73563 4.58924 7.17175V7.55057C4.59209 10.942 7.34076 13.6905 10.732 13.6934H11.1109C11.5453 13.6938 11.9618 13.5205 12.2677 13.2123L12.6056 12.8744C12.7145 12.7658 12.7755 12.6185 12.7755 12.4648C12.7755 12.3111 12.7145 12.1638 12.6056 12.0552L11.5512 10.9957C11.3217 10.7772 10.9615 10.7772 10.732 10.9957L10.6349 11.0929C9.89536 11.8318 8.69709 11.8318 7.95759 11.0929L7.18974 10.325C6.83565 9.9684 6.63694 9.4864 6.63694 8.98384C6.63619 8.48279 6.83505 8.00199 7.18974 7.6479L7.28707 7.55057C7.3949 7.44154 7.45563 7.29442 7.45593 7.141C7.45623 6.98758 7.3955 6.84016 7.28707 6.73158L6.22737 5.67189C6.11864 5.56346 5.97137 5.50272 5.8178 5.50302Z" stroke="#353535" stroke-width="0.2"/>
</svg>
